<svg width="771" height="516" viewBox="0 0 771 516" fill="none" xmlns="http://www.w3.org/2000/svg">
<g filter="url(#filter0_d)">
<rect x="59.2761" y="58.8831" width="676.558" height="422.353" rx="3.5" fill="#121212" stroke="black" stroke-width="3"/>
<rect x="70.6021" y="70.209" width="653.906" height="399.701" rx="3.5" fill="#101015" stroke="black" stroke-width="3"/>
<path d="M129.507 68.709H293.105V431.14H134.507C131.746 431.14 129.507 428.901 129.507 426.14V68.709Z" fill="#17171F"/>
<path d="M293.105 68.709H721.008C723.77 68.709 726.008 70.9476 726.008 73.709V466.41C726.008 469.172 723.77 471.41 721.008 471.41H293.105V68.709Z" fill="#1A1A23"/>
<rect x="129.507" y="431.14" width="163.597" height="40.2701" fill="#101015"/>
<rect x="135.799" y="438.691" width="25.1688" height="25.1688" rx="11.5" fill="#FF8A8A"/>
<rect x="152.159" y="455.05" width="8.80909" height="8.80909" rx="4.40454" fill="#79DEA2"/>
<rect x="167.26" y="441.207" width="66.6974" height="8.80909" rx="2" fill="#878B97"/>
<rect x="167.26" y="452.533" width="30.2026" height="8.80909" rx="2" fill="#555A61"/>
<rect x="334.633" y="416.039" width="174.923" height="45.3039" rx="2" fill="#555A61" fill-opacity="0.5"/>
<rect x="334.633" y="389.611" width="148.496" height="10.0675" rx="2" fill="#292B33"/>
<rect x="334.633" y="402.196" width="90.6077" height="10.0675" rx="2" fill="#292B33"/>
<rect x="334.633" y="377.027" width="66.6974" height="10.0675" rx="2" fill="#878B97"/>
<circle cx="317.015" cy="388.353" r="11.326" fill="#FF8A8A"/>
<g filter="url(#filter1_d)">
<rect x="305.689" y="438.691" width="407.735" height="22.6519" rx="3" fill="#101015"/>
</g>
<rect x="334.633" y="329.206" width="75.5064" height="10.0675" rx="2" fill="#292B33"/>
<rect x="334.633" y="341.791" width="23.9104" height="10.0675" rx="2" fill="#292B33"/>
<rect x="361.06" y="341.791" width="36.4948" height="10.0675" rx="2" fill="#292B33"/>
<rect x="400.072" y="341.791" width="61.6636" height="10.0675" rx="2" fill="#292B33"/>
<rect x="464.252" y="341.791" width="75.5064" height="10.0675" rx="2" fill="#292B33"/>
<rect x="334.633" y="354.375" width="41.5285" height="10.0675" rx="2" fill="#292B33"/>
<rect x="378.679" y="354.375" width="72.9896" height="10.0675" rx="2" fill="#292B33"/>
<rect x="454.185" y="354.375" width="96.8999" height="10.0675" rx="2" fill="#292B33"/>
<rect x="412.656" y="329.206" width="28.9441" height="10.0675" rx="2" fill="#292B33"/>
<rect x="444.118" y="329.206" width="78.0233" height="10.0675" rx="2" fill="#292B33"/>
<rect x="412.656" y="329.206" width="28.9441" height="10.0675" rx="2" fill="#292B33"/>
<rect x="334.633" y="316.622" width="50.3376" height="10.0675" rx="2" fill="#878B97"/>
<circle cx="317.015" cy="327.948" r="11.326" fill="#FDA2FF"/>
<rect x="334.633" y="268.801" width="93.1246" height="10.0675" rx="2" fill="#292B33"/>
<rect x="430.275" y="268.801" width="60.4052" height="10.0675" rx="2" fill="#292B33"/>
<rect x="334.633" y="281.385" width="46.5623" height="10.0675" rx="2" fill="#292B33"/>
<rect x="334.633" y="293.97" width="70.4727" height="10.0675" rx="2" fill="#292B33"/>
<rect x="383.712" y="281.385" width="86.8324" height="10.0675" rx="2" fill="#292B33"/>
<rect x="334.633" y="256.217" width="66.6974" height="10.0675" rx="2" fill="#878B97"/>
<circle cx="317.015" cy="267.543" r="11.326" fill="#FF8A8A"/>
<rect x="334.633" y="124.08" width="28.9441" height="10.0675" rx="2" fill="#292B33"/>
<rect x="334.633" y="136.665" width="60.4052" height="10.0675" rx="2" fill="#292B33"/>
<rect x="397.555" y="136.665" width="112.001" height="10.0675" rx="2" fill="#292B33"/>
<rect x="334.633" y="149.249" width="133.395" height="94.3831" rx="2" fill="#555A61" fill-opacity="0.5"/>
<rect x="366.094" y="124.08" width="54.113" height="10.0675" rx="2" fill="#292B33"/>
<rect x="422.724" y="124.08" width="21.3935" height="10.0675" rx="2" fill="#292B33"/>
<rect x="446.634" y="124.08" width="32.7195" height="10.0675" rx="2" fill="#292B33"/>
<rect x="334.633" y="111.496" width="50.3376" height="10.0675" rx="2" fill="#878B97"/>
<circle cx="317.015" cy="122.822" r="11.326" fill="#FDA2FF"/>
<line x1="293.105" y1="249.424" x2="726.008" y2="255.717" stroke="#202225"/>
<line x1="293.105" y1="370.235" x2="726.008" y2="376.527" stroke="#202225"/>
<line x1="293.105" y1="309.83" x2="726.008" y2="316.122" stroke="#202225"/>
<rect x="325.824" y="82.5518" width="50.3376" height="10.0675" rx="2" fill="#3A3C42"/>
<circle cx="707.131" cy="87.5856" r="6.2922" fill="#878B97"/>
<circle cx="688.255" cy="87.5856" r="6.2922" fill="#878B97"/>
<circle cx="669.378" cy="87.5856" r="6.2922" fill="#878B97"/>
<circle cx="311.981" cy="87.5856" r="6.2922" fill="#FDA2FF"/>
<rect x="383.712" y="85.0687" width="5.03376" height="5.03376" rx="2.51688" fill="#79DEA2"/>
<rect x="138.316" y="78.7766" width="143.462" height="17.6182" rx="2" fill="#3A3C42"/>
<circle cx="145.867" cy="121.564" r="7.55064" fill="#858D95"/>
<rect x="158.451" y="115.271" width="67.9558" height="12.5844" rx="2" fill="#555A61"/>
<rect x="129.507" y="164.351" width="163.597" height="22.6519" fill="#292B33"/>
<rect x="129.507" y="164.351" width="2.51688" height="22.6519" fill="#FEBE10"/>
<circle cx="145.867" cy="175.676" r="7.55064" fill="#FDA2FF"/>
<rect x="148.384" y="178.193" width="5.03376" height="5.03376" rx="2.51688" fill="#79DEA2"/>
<rect x="160.968" y="169.384" width="50.3376" height="12.5844" rx="2" fill="#555A61"/>
<circle cx="145.867" cy="199.587" r="7.55064" fill="#FFC3A2"/>
<rect x="148.384" y="202.104" width="5.03376" height="5.03376" rx="2.51688" fill="#79DEA2"/>
<rect x="160.968" y="193.295" width="61.6636" height="12.5844" rx="2" fill="#555A61"/>
<circle cx="145.867" cy="220.98" r="7.55064" fill="#A2FFFF"/>
<rect x="148.384" y="223.497" width="5.03376" height="5.03376" rx="2.51688" fill="#79DEA2"/>
<rect x="160.968" y="214.688" width="36.4948" height="12.5844" rx="2" fill="#555A61"/>
<rect x="138.316" y="145.474" width="44.0454" height="12.5844" rx="2" fill="#878B97"/>
<rect x="188.654" y="145.474" width="56.6298" height="12.5844" rx="2" fill="#878B97"/>
<path d="M69.1021 73.709C69.1021 70.9476 71.3407 68.709 74.1021 68.709H129.507V471.41H74.1021C71.3407 471.41 69.1021 469.171 69.1021 466.41V73.709Z" fill="#101015"/>
<rect x="69.1021" y="78.7766" width="2.51688" height="35.2363" fill="#FEBE10"/>
<rect x="81.6865" y="78.7766" width="35.2363" height="35.2363" rx="8" fill="#FEBE10"/>
<rect x="76.6528" y="126.597" width="45.3039" height="3.77532" fill="white" fill-opacity="0.12"/>
</g>
<defs>
<filter id="filter0_d" x="0.776123" y="0.383072" width="769.558" height="515.353" filterUnits="userSpaceOnUse" color-interpolation-filters="sRGB">
<feFlood flood-opacity="0" result="BackgroundImageFix"/>
<feColorMatrix in="SourceAlpha" type="matrix" values="0 0 0 0 0 0 0 0 0 0 0 0 0 0 0 0 0 0 127 0"/>
<feOffset dx="-12" dy="-12"/>
<feGaussianBlur stdDeviation="22.5"/>
<feColorMatrix type="matrix" values="0 0 0 0 0.0627451 0 0 0 0 0.0627451 0 0 0 0 0.0823529 0 0 0 1 0"/>
<feBlend mode="normal" in2="BackgroundImageFix" result="effect1_dropShadow"/>
<feBlend mode="normal" in="SourceGraphic" in2="effect1_dropShadow" result="shape"/>
</filter>
<filter id="filter1_d" x="294.689" y="423.691" width="429.735" height="44.6519" filterUnits="userSpaceOnUse" color-interpolation-filters="sRGB">
<feFlood flood-opacity="0" result="BackgroundImageFix"/>
<feColorMatrix in="SourceAlpha" type="matrix" values="0 0 0 0 0 0 0 0 0 0 0 0 0 0 0 0 0 0 127 0"/>
<feOffset dy="-4"/>
<feGaussianBlur stdDeviation="5.5"/>
<feColorMatrix type="matrix" values="0 0 0 0 0.101961 0 0 0 0 0.101961 0 0 0 0 0.137255 0 0 0 0.5 0"/>
<feBlend mode="normal" in2="BackgroundImageFix" result="effect1_dropShadow"/>
<feBlend mode="normal" in="SourceGraphic" in2="effect1_dropShadow" result="shape"/>
</filter>
</defs>
</svg>
