<svg xmlns="http://www.w3.org/2000/svg" xmlns:xlink="http://www.w3.org/1999/xlink" width="528" height="471" viewBox="0 0 528 471"><defs><filter id="a" x="0" y="0" width="528" height="471" filterUnits="userSpaceOnUse"><feOffset dy="3" input="SourceAlpha"/><feGaussianBlur stdDeviation="8" result="b"/><feFlood flood-opacity="0.161"/><feComposite operator="in" in2="b"/><feComposite in="SourceGraphic"/></filter><filter id="c" x="288.5" y="67.5" width="225" height="90" filterUnits="userSpaceOnUse"><feOffset dy="4" input="SourceAlpha"/><feGaussianBlur stdDeviation="7.5" result="d"/><feFlood flood-opacity="0.349"/><feComposite operator="in" in2="d"/><feComposite in="SourceGraphic"/></filter><filter id="e" x="278.5" y="118.5" width="225" height="90" filterUnits="userSpaceOnUse"><feOffset dy="4" input="SourceAlpha"/><feGaussianBlur stdDeviation="7.5" result="f"/><feFlood flood-opacity="0.349"/><feComposite operator="in" in2="f"/><feComposite in="SourceGraphic"/></filter><filter id="g" x="268.5" y="169.5" width="225" height="90" filterUnits="userSpaceOnUse"><feOffset dy="4" input="SourceAlpha"/><feGaussianBlur stdDeviation="7.5" result="h"/><feFlood flood-opacity="0.349"/><feComposite operator="in" in2="h"/><feComposite in="SourceGraphic"/></filter></defs><g transform="translate(-1178 -133)"><g transform="translate(1201.983 154.104)"><g transform="matrix(1, 0, 0, 1, -23.98, -21.1)" filter="url(#a)"><rect width="480" height="423" rx="10" transform="translate(24 21)" fill="#1a1a23"/></g><rect width="37" height="38" rx="18.5" transform="translate(9.017 59.896)" fill="rgba(84,223,204,0.67)"/><rect width="46" height="15" rx="7.5" transform="translate(66.017 59.896)" fill="#c4c4d6"/><rect width="240" height="15" rx="7.5" transform="translate(66.017 82.896)" fill="rgba(55,55,75,0.67)"/><path d="M18.5,0A18.5,18.5,0,1,1,0,18.5,18.5,18.5,0,0,1,18.5,0Z" transform="translate(9.017 123.896)" fill="rgba(218,84,223,0.67)"/><rect width="70" height="15" rx="7.5" transform="translate(66.017 123.896)" fill="#c4c4d6"/><rect width="135.343" height="15.297" rx="7.648" transform="translate(65.471 146.413)" fill="rgba(55,55,75,0.67)"/><rect width="37" height="37" rx="18.5" transform="translate(9.017 189.896)" fill="rgba(223,117,84,0.67)"/><rect width="169.713" height="15.297" rx="7.648" transform="translate(65.471 211.971)" fill="rgba(55,55,75,0.67)"/><rect width="120" height="15" rx="7.5" transform="translate(66.017 277.896)" fill="rgba(55,55,75,0.67)"/><path d="M0,0H479.707V51H0Z" transform="translate(-0.075 248.896)" fill="rgba(16,16,21,0.4)"/><rect width="37" height="37" rx="18.5" transform="translate(9.017 254.896)" fill="rgba(191,223,84,0.67)"/><rect width="89" height="15" rx="7.5" transform="translate(66.017 254.896)" fill="#c4c4d6"/><rect width="60" height="15" rx="7.5" transform="translate(66.017 188.896)" fill="#c4c4d6"/><rect width="191" height="16" rx="8" transform="translate(66.017 364.896)" fill="rgba(55,55,75,0.67)"/><rect width="37" height="37" rx="18.5" transform="translate(9.017 319.896)" fill="rgba(139,84,223,0.67)"/><rect width="89" height="16" rx="8" transform="translate(66.017 319.896)" fill="#c4c4d6"/><rect width="304" height="15" rx="7.5" transform="translate(66.017 342.896)" fill="rgba(55,55,75,0.67)"/></g><g transform="matrix(1, 0, 0, 1, 1178, 133)" filter="url(#c)"><rect width="180" height="45" rx="10" transform="translate(311 86)" fill="#242430"/></g><text transform="translate(1504 248)" fill="#e2e2e2" font-size="18" font-family="Rubik-Bold, Rubik" font-weight="700"><tspan x="0" y="0">#development</tspan></text><g transform="matrix(1, 0, 0, 1, 1178, 133)" filter="url(#e)"><rect width="180" height="45" rx="10" transform="translate(301 137)" fill="#20202a"/></g><text transform="translate(1495 299)" fill="#e2e2e2" font-size="18" font-family="Rubik-Bold, Rubik" font-weight="700"><tspan x="0" y="0">#pets</tspan></text><g transform="matrix(1, 0, 0, 1, 1178, 133)" filter="url(#g)"><rect width="180" height="45" rx="10" transform="translate(291 188)" fill="#242430"/></g><text transform="translate(1484 350)" fill="#e2e2e2" font-size="18" font-family="Rubik-Bold, Rubik" font-weight="700"><tspan x="0" y="0">#rants</tspan></text></g></svg>