<?xml version="1.0" encoding="UTF-8" standalone="no"?>
<!DOCTYPE svg PUBLIC "-//W3C//DTD SVG 1.1//EN" "http://www.w3.org/Graphics/SVG/1.1/DTD/svg11.dtd">
<svg width="100%" height="100%" viewBox="0 0 32 32" version="1.1" xmlns="http://www.w3.org/2000/svg" xmlns:xlink="http://www.w3.org/1999/xlink" xml:space="preserve" xmlns:serif="http://www.serif.com/" style="fill-rule:evenodd;clip-rule:evenodd;stroke-linejoin:round;stroke-miterlimit:2;">
    <g transform="matrix(0.0335993,0,0,0.0335993,0.324969,-3.54445)">
        <path d="M634.956,223.897C634.956,159.328 582.535,106.906 517.966,106.906L415.092,106.906C350.523,106.906 298.101,159.328 298.101,223.897C298.101,223.897 298.101,326.771 298.101,326.771C298.101,391.34 350.523,443.762 415.092,443.762L517.966,443.762C582.535,443.762 634.956,391.34 634.956,326.771L634.956,223.897ZM562.336,223.897L562.336,326.771C562.336,351.26 542.454,371.141 517.966,371.141C517.966,371.141 415.092,371.141 415.092,371.141C390.603,371.141 370.721,351.26 370.721,326.771L370.721,223.897C370.721,199.409 390.603,179.527 415.092,179.527C415.092,179.527 517.966,179.527 517.966,179.527C542.454,179.527 562.336,199.409 562.336,223.897Z"/>
    </g>
    <g transform="matrix(0.0617582,0,0,0.0617582,-12.8119,5.56259)">
        <path d="M618.401,223.897C618.401,168.466 573.397,123.462 517.966,123.462L415.092,123.462C359.66,123.462 314.657,168.466 314.657,223.897L314.657,326.771C314.657,382.203 359.66,427.206 415.092,427.206L517.966,427.206C573.397,427.206 618.401,382.203 618.401,326.771C618.401,326.771 618.401,223.897 618.401,223.897ZM578.892,223.897L578.892,326.771C578.892,360.397 551.592,387.697 517.966,387.697C517.966,387.697 415.092,387.697 415.092,387.697C381.466,387.697 354.166,360.397 354.166,326.771C354.166,326.771 354.166,223.897 354.166,223.897C354.166,190.271 381.466,162.971 415.092,162.971C415.092,162.971 517.966,162.971 517.966,162.971C551.592,162.971 578.892,190.271 578.892,223.897Z"/>
    </g>
</svg>
