<?xml version="1.0" encoding="UTF-8" standalone="no"?><!DOCTYPE svg PUBLIC "-//W3C//DTD SVG 1.1//EN" "http://www.w3.org/Graphics/SVG/1.1/DTD/svg11.dtd"><svg width="100%" height="100%" viewBox="0 0 12845 4908" version="1.1" xmlns="http://www.w3.org/2000/svg" xmlns:xlink="http://www.w3.org/1999/xlink" xml:space="preserve" xmlns:serif="http://www.serif.com/" style="fill-rule:evenodd;clip-rule:evenodd;stroke-miterlimit:10;"><g><path d="M11.933,3970.25l1342.67,359.768l-1162.79,311.569l-179.884,-671.337Zm2981.18,-127.211l-1342.75,-359.79l1162.86,-311.586l179.895,671.376Z" style="fill:#febe10;"/><path d="M0,3887.81l2813.28,753.817l191.88,-716.108l-2813.28,-753.817l-191.881,716.108Z" style="fill:#febe10;stroke:#fff;stroke-opacity:0;stroke-width:105.91px;"/><path d="M1063.04,3251.83c5.08,3.212 10.969,4.917 16.98,4.917c17.43,0 31.773,-14.342 31.773,-31.773c0,-6.893 -2.243,-13.602 -6.389,-19.109c-97.014,-151.028 -188.943,-405.106 -42.364,-732.368c244.122,-545.754 392.608,-828.427 392.608,-828.427c0,-0 79.009,329.909 293.265,623.174c206.1,282.25 318.895,637.26 137.047,933.066c-3.874,5.399 -5.959,11.88 -5.959,18.526c-0,17.43 14.343,31.773 31.773,31.773c5.839,-0 11.566,-1.61 16.55,-4.651c225.165,-115.23 477.654,-346.22 506.144,-805.975c10.591,-140.543 -5.19,-337.217 -83.987,-585.364c-101.356,-314.553 -225.906,-461.344 -297.924,-524.466c-5.84,-5.284 -13.441,-8.212 -21.317,-8.212c-17.43,0 -31.773,14.343 -31.773,31.773c0,0.974 0.045,1.947 0.135,2.916c21.182,339.442 -106.758,425.546 -179.412,231.413c-29.019,-77.526 -45.965,-211.82 -45.965,-374.921c0,-271.871 -78.903,-551.791 -252.807,-779.179c-45.809,-60.427 -99.203,-114.711 -158.865,-161.513c-5.704,-4.74 -12.891,-7.337 -20.307,-7.337c-17.43,0 -31.773,14.343 -31.773,31.773c-0,1.142 0.062,2.283 0.184,3.418c13.345,184.284 1.271,712.457 -462.191,1343.57c-420.144,585.364 -257.361,1034.95 -199.534,1156.64c109.617,233.32 263.716,370.262 414.108,450.33Z" style="fill:#febe10;fill-rule:nonzero;"/></g><path d="M4559.01,3408.43c-27.451,0 -49.912,-9.358 -67.381,-28.075c-17.469,-18.718 -26.204,-40.554 -26.204,-65.51l0,-2433.21c0,-27.452 8.735,-49.913 26.204,-67.382c17.469,-17.469 39.93,-26.204 67.381,-26.204l1048.15,0c207.135,0 387.442,31.819 540.922,95.457c153.479,63.638 273.268,159.095 359.367,286.371c86.098,127.275 129.147,288.242 129.147,482.899c0,192.161 -43.049,350.632 -129.147,475.412c-86.099,124.781 -205.888,217.118 -359.367,277.012c-153.48,59.895 -333.787,89.842 -540.922,89.842l-445.466,0l0,819.806c0,24.956 -9.358,46.792 -28.075,65.51c-18.717,18.717 -41.801,28.075 -69.253,28.075l-505.36,0Zm591.458,-1429.98l437.979,0c107.311,0 192.785,-27.451 256.423,-82.355c63.638,-54.903 95.457,-138.506 95.457,-250.808c-0,-94.833 -27.452,-174.692 -82.355,-239.578c-54.903,-64.885 -144.745,-97.328 -269.525,-97.328l-437.979,-0l0,670.069Z" style="fill:#febe10;fill-rule:nonzero;"/><path d="M7317.9,4119.68c-22.461,0 -41.178,-7.487 -56.151,-22.46c-14.974,-14.974 -22.461,-33.691 -22.461,-56.151c0,-4.992 0.624,-11.855 1.872,-20.589c1.248,-8.735 4.367,-18.093 9.359,-28.076l291.985,-703.76l-718.734,-1699.51c-7.486,-17.469 -11.23,-32.443 -11.23,-44.921c4.991,-22.46 14.974,-41.801 29.947,-58.023c14.974,-16.221 33.691,-24.332 56.151,-24.332l426.749,0c32.443,0 56.775,8.111 72.996,24.332c16.221,16.222 28.076,34.315 35.562,54.28l426.749,1089.33l437.978,-1089.33c9.982,-19.965 23.084,-38.058 39.306,-54.28c16.221,-16.221 40.553,-24.332 72.996,-24.332l419.262,0c22.46,0 41.801,8.111 58.022,24.332c16.222,16.222 24.332,34.315 24.332,54.28c0,12.478 -3.743,28.699 -11.23,48.664l-1059.38,2451.93c-7.487,19.964 -19.965,38.057 -37.434,54.279c-17.47,16.221 -42.426,24.332 -74.869,24.332l-411.774,0Z" style="fill:#febe10;fill-rule:nonzero;"/><path d="M9283.18,3408.43c-27.452,0 -49.912,-9.358 -67.382,-28.075c-17.469,-18.718 -26.204,-40.554 -26.204,-65.51l0,-1759.4c0,-24.956 8.735,-46.792 26.204,-65.509c17.47,-18.717 39.93,-28.076 67.382,-28.076l430.491,0c27.452,0 50.536,9.359 69.253,28.076c18.717,18.717 28.076,40.553 28.076,65.509l-0,149.737c64.885,-77.364 144.121,-137.259 237.706,-179.684c93.585,-42.425 199.024,-63.638 316.318,-63.638l164.71,0c27.451,0 49.912,8.735 67.381,26.204c17.469,17.469 26.204,39.93 26.204,67.381l-0,385.571c-0,24.956 -8.735,46.793 -26.204,65.51c-17.469,18.717 -39.93,28.075 -67.381,28.075l-363.111,0c-102.319,0 -181.555,28.076 -237.706,84.227c-56.151,56.151 -84.227,135.386 -84.227,237.706l0,958.312c0,24.956 -9.358,46.792 -28.075,65.51c-18.717,18.717 -41.801,28.075 -69.253,28.075l-464.182,0Z" style="fill:#febe10;fill-rule:nonzero;"/><path d="M11795,3445.86c-209.631,0 -386.195,-33.691 -529.692,-101.072c-143.498,-67.381 -253.304,-164.086 -329.42,-290.114c-76.116,-126.028 -119.165,-276.388 -129.147,-451.08c-2.496,-49.912 -3.744,-106.687 -3.744,-170.325c0,-63.638 1.248,-119.165 3.744,-166.582c9.982,-177.187 54.903,-328.171 134.762,-452.952c79.859,-124.78 191.538,-220.86 335.035,-288.242c143.497,-67.381 316.318,-101.072 518.462,-101.072c204.639,0 378.707,33.691 522.205,101.072c143.497,67.382 255.175,163.462 335.034,288.242c79.86,124.781 124.781,275.765 134.763,452.952c2.496,47.417 3.743,102.944 3.743,166.582c0,63.638 -1.247,120.413 -3.743,170.325c-9.982,174.692 -53.032,325.052 -129.148,451.08c-76.115,126.028 -185.922,222.733 -329.419,290.114c-143.497,67.381 -321.309,101.072 -533.435,101.072Zm-0,-456.695c112.302,-0 194.033,-33.691 245.193,-101.072c51.159,-67.382 80.483,-168.454 87.97,-303.216c2.495,-37.434 3.743,-87.346 3.743,-149.736c-0,-62.39 -1.248,-112.302 -3.743,-149.737c-7.487,-132.267 -36.811,-232.715 -87.97,-301.344c-51.16,-68.629 -132.891,-102.943 -245.193,-102.943c-107.311,-0 -187.795,34.314 -241.45,102.943c-53.656,68.629 -82.979,169.077 -87.97,301.344c-2.496,37.435 -3.744,87.347 -3.744,149.737c0,62.39 1.248,112.302 3.744,149.736c4.991,134.762 34.314,235.834 87.97,303.216c53.655,67.381 134.139,101.072 241.45,101.072Z" style="fill:#febe10;fill-rule:nonzero;"/></svg>